<?xml version="1.0" encoding="utf-8"?>
<!-- Generator: Adobe Illustrator 26.4.0, SVG Export Plug-In . SVG Version: 6.00 Build 0)  -->
<svg version="1.0" id="Layer_1" xmlns="http://www.w3.org/2000/svg" xmlns:xlink="http://www.w3.org/1999/xlink" x="0px" y="0px"
	 viewBox="0 0 255.1 113.4" style="enable-background:new 0 0 255.1 113.4;" xml:space="preserve">
<style type="text/css">
	.st0{fill:#FF262E;}
	.st1{fill:#FAB418;}
	.st2{fill:#DE0833;}
	.st3{fill:#FF6600;}
	.st4{fill:#23282C;}
	.st5{fill:#B41831;}
</style>
<g>
	<path class="st0" d="M33.57,32.59L13.83,15.67c-0.63-0.54-1.59,0.05-1.39,0.86l7.8,31.38l15.01,8.87L33.57,32.59z"/>
	<path class="st1" d="M33.86,96.22c-0.3,0.79-1.43,0.72-1.63-0.09L20.24,47.91L1.3,36.73c-0.72-0.42-1.56,0.32-1.22,1.09
		l33.25,74.95c0.34,0.77,1.47,0.64,1.62-0.19l7.23-38.45l-0.12,0.21L33.86,96.22z"/>
	<path class="st2" d="M33.89,96.16l8.2-21.89l-3.59,6.08c-0.43,0.72-1.53,0.46-1.59-0.38l-1.63-23.27l-15.01-8.86l11.99,48.22
		C32.47,96.88,33.6,96.95,33.89,96.16z"/>
	<path class="st3" d="M59.89,33.02L32.86,0.21c-0.53-0.64-1.57-0.23-1.51,0.61l2.22,31.78l13.71,11.76
		c2.73,2.34,3.71,6.15,2.45,9.53l-7.49,20l-0.05,0.24l18.47-31.28C62.49,39.74,62.18,35.81,59.89,33.02z"/>
	<path class="st2" d="M39.25,59.14c3.11,1.84,4.73,5.42,4.06,8.97l-1.08,5.77l7.49-20c1.26-3.37,0.29-7.18-2.45-9.53L33.56,32.6
		l1.69,24.18L39.25,59.14z"/>
	<path class="st4" d="M86.48,44.68h1.26c1.71,0,3.24,1.05,3.86,2.64l18.94,48.38h-5.69c-1.03,0-1.96-0.64-2.33-1.61l-5.18-13.63
		H76.65l-5.07,13.62c-0.36,0.97-1.29,1.62-2.33,1.62h-5.49l18.85-48.38C83.24,45.73,84.78,44.68,86.48,44.68z M78.86,74.35h16.2
		l-8.1-21.57L78.86,74.35z"/>
	<path class="st4" d="M192.69,95.69V44.68h6.92V95.7L192.69,95.69L192.69,95.69z"/>
	<path class="st4" d="M248.63,93.93l-26.66-37.94V95.7h-6.4V44.73h4.04c1.35,0,2.61,0.65,3.38,1.75l25.71,36.3V44.69l6.4-0.01V95.7
		h-3.07C250.67,95.69,249.4,95.04,248.63,93.93z"/>
	<path class="st4" d="M165.55,95.69h-5.82l-13.77-41.37L132.2,95.69h-5.74l-15.33-51.02h5.52c1.12,0,2.1,0.74,2.4,1.82l10.65,38.08
		l12.26-37.75c0.42-1.28,1.61-2.15,2.96-2.15h2.4c1.35,0,2.54,0.87,2.96,2.15l12.26,37.75l10.61-38.08c0.3-1.08,1.28-1.82,2.4-1.82
		h5.33L165.55,95.69z"/>
	<path class="st5" d="M39.25,59.14l-4-2.36l1.63,23.26c0.06,0.84,1.16,1.1,1.59,0.38l3.59-6.08l0,0l0.12-0.21l0.04-0.24l0,0
		l1.08-5.77C43.99,64.56,42.36,60.97,39.25,59.14z"/>
</g>
</svg>
